<svg width="191" height="43" viewBox="0 0 191 43" fill="none" xmlns="http://www.w3.org/2000/svg">
<path d="M20.0549 4.29323C18.0971 4.58304 16.8693 5.01439 15.58 5.85012C13.9975 6.88132 13.0561 8.05404 12.7764 9.32113C12.4354 10.905 13.3017 12.7989 14.7001 13.5268C16.7806 14.6051 19.1954 14.0323 20.3891 12.1721C20.9826 11.242 21.1122 10.0827 20.7439 9.06501C20.1095 7.34636 20.1231 7.40028 20.1231 6.84088C20.1231 5.931 20.4164 5.1357 20.9894 4.5089L21.2282 4.24605L20.7302 4.25279C20.4505 4.25953 20.1504 4.27301 20.0549 4.29323Z" fill="#F6F6F6"/>
<path d="M29.8645 4.29301C29.8509 4.32671 29.8577 9.8938 29.8782 16.6808L29.9123 29.0146L32.9683 29.0349L36.0174 29.0483V16.6471V4.24583H32.9546C31.2629 4.24583 29.8782 4.26605 29.8645 4.29301Z" fill="#F6F6F6"/>
<path d="M38.3359 5.82315C38.3359 5.90403 38.411 5.93099 38.6497 5.93099C39.7343 5.93099 41.8694 6.63867 43.07 7.40027C45.4575 8.90998 47.2857 11.5318 47.8518 14.2547C48.0087 15.0095 48.0633 16.4181 47.961 17.2067C47.4903 20.8866 44.9254 24.1757 41.4056 25.6112C40.6348 25.928 39.0249 26.2852 38.3905 26.2852C38.3564 26.2852 38.3359 26.3324 38.3359 26.3931C38.3359 26.4874 38.6838 26.4942 42.0741 26.4672C45.096 26.4402 45.9077 26.4133 46.3443 26.3257C49.107 25.7865 51.0374 24.7216 52.8519 22.7468C55.2122 20.179 56.0444 16.2429 54.912 12.9741C53.6773 9.37503 50.7441 6.83412 46.7604 5.91077C46.1806 5.78271 45.9214 5.76923 42.2446 5.74901C38.7452 5.72205 38.3359 5.73553 38.3359 5.82315Z" fill="#F6F6F6"/>
<path d="M17.0943 16.7887C13.9974 17.1122 11.5349 18.6287 10.6686 20.745C10.3343 21.5605 10.2661 21.9514 10.2729 22.9489C10.2797 23.6903 10.307 24.0071 10.423 24.4317C11.0847 26.8378 13.097 28.3408 16.4054 28.8934C16.8692 28.9743 17.7765 29.0013 20.1231 29.0282L23.2268 29.0552L22.5651 28.7249C21.6647 28.2666 21.3373 28.0375 20.6961 27.4039C19.4682 26.184 18.8611 24.8428 18.7792 23.1511C18.6974 21.365 19.3045 19.7812 20.5664 18.4737C21.2349 17.7862 21.7466 17.4155 22.5856 17.0179L23.2268 16.7146L20.43 16.7281C18.8952 16.7281 17.3877 16.755 17.0943 16.7887Z" fill="#F6F6F6"/>
<path d="M112.806 17.8333C112.778 17.8603 112.758 18.1029 112.758 18.3657V18.851L112.198 18.8982C111.885 18.9251 111.373 18.9925 111.052 19.0465C108.945 19.4037 107.512 20.4618 106.98 22.0659C106.83 22.5242 106.803 22.7331 106.803 23.3869C106.803 24.8292 107.226 25.793 108.242 26.6355C109.149 27.3971 110.391 27.8217 112.11 27.9565L112.724 28.0037L112.758 28.5092L112.792 29.0146H113.167H113.542L113.576 28.5092L113.611 28.0037L114.259 27.9565C117.246 27.7273 119.156 26.3794 119.511 24.2496C119.661 23.306 119.538 22.2951 119.163 21.5132C118.829 20.819 118.031 20.0709 117.192 19.6598C116.4 19.2756 115.507 19.0397 114.409 18.9319L113.583 18.851L113.563 18.3388L113.542 17.8266L113.201 17.8063C113.01 17.7929 112.833 17.8063 112.806 17.8333ZM112.758 23.461V27.3769L112.301 27.3297C110.227 27.1275 108.897 26.494 108.112 25.3415C107.703 24.7416 107.505 23.6969 107.635 22.841C107.853 21.4324 108.89 20.3607 110.486 19.8822C111.134 19.6867 111.878 19.5587 112.369 19.552L112.758 19.5452V23.461ZM114.77 19.6463C117.335 20.0574 118.747 21.3784 118.754 23.3869C118.761 24.4585 118.413 25.2741 117.662 25.9817C116.878 26.7096 115.807 27.1275 114.293 27.2893C113.958 27.323 113.658 27.3364 113.631 27.323C113.597 27.3027 113.576 25.5436 113.576 23.4139V19.5452H113.849C113.999 19.5452 114.415 19.5924 114.77 19.6463Z" fill="#F6F6F6"/>
<path d="M157.405 18.1571C155.031 18.5413 153.339 19.9971 152.759 22.1403C152.595 22.7739 152.589 24.1151 152.759 24.7352C153.312 26.7841 155.092 28.3679 157.234 28.7049C157.95 28.8195 159.164 28.7925 159.888 28.6443C161.136 28.3949 162.371 27.64 163.141 26.6695C163.926 25.6855 164.219 24.8026 164.219 23.4546C164.226 22.0999 163.939 21.2305 163.155 20.1993C161.995 18.6626 159.567 17.8066 157.405 18.1571ZM159.253 18.8783C160.406 19.0333 161.409 19.5522 162.207 20.3947C163.019 21.2574 163.373 22.174 163.373 23.4344C163.373 24.6004 163.087 25.4226 162.377 26.2921C162.009 26.7504 161.375 27.2693 160.883 27.512C158.796 28.5701 156.081 28.1051 154.58 26.4403C154.158 25.9753 153.653 24.9913 153.544 24.4184C153.414 23.7377 153.489 22.511 153.701 21.9179C154.471 19.7814 156.75 18.5345 159.253 18.8783Z" fill="#F6F6F6"/>
<path d="M67.0067 18.2108C66.9316 18.3052 63.7119 24.8428 63.7119 24.9034C63.7119 24.9102 63.3708 25.6111 62.9547 26.4603C62.5386 27.3095 62.1225 28.1655 62.0407 28.3542L61.877 28.7114H62.3203H62.7637L63.2617 27.6802C63.5346 27.1208 63.862 26.4536 63.978 26.1975L64.2031 25.7459H67.4228H70.6425L71.3724 27.2287L72.0955 28.7114H72.5047C72.764 28.7114 72.9208 28.6845 72.9208 28.6373C72.9208 28.5631 72.1296 26.9119 69.6738 21.8705C69.1281 20.7584 68.4937 19.4711 68.2618 19.0061L67.8389 18.1636L67.4569 18.1434C67.2045 18.1299 67.0544 18.1501 67.0067 18.2108ZM67.873 19.9632C68.0913 20.4215 68.7325 21.7492 69.2918 22.9152L70.3151 25.0382L68.8962 25.0584C68.1117 25.0652 66.8088 25.0652 66.0039 25.0584L64.5305 25.0382L65.9493 22.0929C66.727 20.4754 67.3887 19.1476 67.416 19.1409C67.4501 19.1409 67.6547 19.5116 67.873 19.9632Z" fill="#F6F6F6"/>
<path d="M88.4804 23.4005L88.5077 28.6778L88.8556 28.698C89.2035 28.7183 89.2103 28.7115 89.5309 28.3611C89.8856 27.9701 91.3386 26.2178 92.8666 24.3239C93.0917 24.0476 93.4737 23.5825 93.7261 23.286C93.9717 22.9894 94.531 22.3222 94.9608 21.7965C96.6116 19.788 96.7616 19.6128 96.8094 19.6128C96.8367 19.6128 96.864 21.6617 96.864 24.1621V28.7183L97.2596 28.698L97.6484 28.6778L97.6689 23.4612C97.6825 19.2893 97.6689 18.2311 97.6007 18.1839C97.4642 18.1031 97.0413 18.1233 96.9117 18.2109C96.8503 18.2581 96.5775 18.5748 96.3046 18.9118C96.0317 19.2488 95.3428 20.0846 94.7766 20.7653C93.6442 22.1335 92.1504 23.9532 90.4927 25.9752C89.8993 26.7031 89.3877 27.2827 89.3672 27.2557C89.3467 27.2355 89.3263 25.1799 89.3263 22.6929V18.1637L88.8897 18.1435L88.46 18.1233L88.4804 23.4005Z" fill="#F6F6F6"/>
<path d="M125.248 19.087C124.996 19.6194 124.341 20.9606 123.795 22.0727C121.066 27.6263 120.603 28.5968 120.603 28.6845C120.603 28.6979 120.8 28.7114 121.039 28.7114H121.469L122.103 27.3769C122.444 26.649 122.772 25.9818 122.826 25.8942L122.922 25.7459H126.135H129.341L129.921 26.9389C130.241 27.5994 130.569 28.2666 130.644 28.4216L130.794 28.7114H131.224C131.462 28.7114 131.653 28.6912 131.653 28.671C131.653 28.6373 129.955 25.1191 127.826 20.7584L126.564 18.1636L126.142 18.1434L125.719 18.1232L125.248 19.087ZM126.865 20.5697C127.24 21.3583 127.758 22.4299 128.011 22.9489C128.57 24.1081 128.993 25.018 128.993 25.045C128.993 25.0584 127.704 25.0719 126.128 25.0719C124.539 25.0719 123.263 25.045 123.263 25.0113C123.263 24.9776 123.863 23.7172 124.6 22.2008C125.337 20.6843 125.964 19.3768 125.998 19.2892C126.032 19.2083 126.08 19.1409 126.114 19.1409C126.148 19.1409 126.483 19.7879 126.865 20.5697Z" fill="#F6F6F6"/>
<path d="M134.02 18.1704C133.966 18.2243 133.959 27.4983 134.013 28.1655L134.061 28.7114H134.423H134.791L134.805 26.2312L134.825 23.7577L136.155 23.7374L137.485 23.724L139.157 25.692C140.078 26.7704 141.039 27.8959 141.292 28.1857L141.756 28.7114H142.199C142.438 28.7114 142.636 28.6912 142.636 28.671C142.636 28.5968 141.626 27.3769 138.836 24.0879C138.488 23.6768 138.202 23.3196 138.202 23.3061C138.202 23.2454 139.505 21.6683 141.701 19.0668C142.063 18.6287 142.363 18.2445 142.363 18.2041C142.363 18.1232 141.626 18.103 141.503 18.1838C141.435 18.2243 139.805 20.1856 138.106 22.2614C137.806 22.6254 137.513 22.9489 137.444 22.9893C137.26 23.0837 134.975 23.0702 134.873 22.9691C134.811 22.9084 134.791 22.2682 134.791 20.5091V18.1299H134.429C134.225 18.1299 134.047 18.1501 134.02 18.1704Z" fill="#F6F6F6"/>
<path d="M142.772 18.5007V18.8714H144.785H146.797V23.7915V28.7183L147.193 28.698L147.582 28.6778L147.602 23.7712L147.616 18.8714H149.635H151.647L151.627 18.5142L151.606 18.1637L147.193 18.1435L142.772 18.13V18.5007Z" fill="#F6F6F6"/>
<path d="M167.316 18.1704C167.282 18.1973 167.262 20.5832 167.262 23.4679V28.7114H167.671H168.08V26.9995V25.2876L170.25 25.2539C172.651 25.2202 173.026 25.1663 173.947 24.7215C174.513 24.4519 175.222 23.7644 175.461 23.2522C175.789 22.5647 175.877 21.6346 175.686 20.8326C175.379 19.5655 174.458 18.7298 172.924 18.3321C172.391 18.1973 172.139 18.1838 169.854 18.1501C168.483 18.1299 167.344 18.1367 167.316 18.1704ZM172.787 19.0331C173.742 19.3431 174.342 19.7947 174.677 20.4754C174.854 20.8326 174.868 20.9135 174.868 21.7357C174.868 22.5647 174.861 22.6321 174.677 22.9691C174.274 23.7172 173.544 24.2227 172.542 24.4316C172.194 24.5058 171.566 24.5327 170.079 24.5327H168.08V21.6953V18.8578L170.25 18.8848C172.084 18.9117 172.466 18.932 172.787 19.0331Z" fill="#F6F6F6"/>
<path d="M178.38 23.4207V28.7114H178.714C179.028 28.7114 179.069 28.6912 179.355 28.3879C179.526 28.2127 179.853 27.8285 180.092 27.532C180.324 27.2354 180.535 26.9793 180.563 26.9591C180.583 26.9389 180.72 26.7704 180.87 26.5884C181.02 26.3997 181.34 26.0088 181.593 25.7122C181.968 25.2606 183.38 23.5487 184.819 21.7964C185.01 21.5672 185.488 20.9876 185.877 20.5158C186.265 20.0373 186.613 19.6329 186.641 19.6262C186.675 19.6127 186.702 21.6144 186.702 24.1553V28.7114H187.111H187.521V24.7686C187.527 22.5984 187.527 20.5091 187.527 20.1182C187.527 19.7273 187.527 19.1207 187.521 18.7702V18.1299H187.18C186.77 18.1299 186.927 17.9749 185.051 20.2597C181.872 24.1351 181.299 24.8293 180.29 26.0492L179.233 27.3298L179.198 22.7467L179.164 18.1636L178.776 18.1434L178.38 18.1232V23.4207Z" fill="#F6F6F6"/>
<path d="M75.3086 23.4544V28.7114H75.6838H76.059L76.0726 23.8048L76.0931 18.905L79.8653 18.8848L83.6307 18.8713L83.6376 22.7939C83.6376 24.9574 83.6444 26.8445 83.658 26.9928C83.6648 27.141 83.6785 27.5859 83.6853 27.9835L83.699 28.7114H84.1082H84.5175V23.4544V18.1973H79.9131H75.3086V23.4544Z" fill="#F6F6F6"/>
<path d="M100.643 24.3574C100.622 24.4045 100.616 24.5798 100.629 24.7415L100.65 25.0381L102.785 25.0583L104.92 25.0718L104.899 24.6876L104.879 24.2967L102.778 24.2765C101.032 24.263 100.677 24.2765 100.643 24.3574Z" fill="#F6F6F6"/>
</svg>
