<?xml version="1.0" encoding="utf-8"?>
<!-- Generator: Adobe Illustrator 28.1.0, SVG Export Plug-In . SVG Version: 6.00 Build 0)  -->
<svg version="1.1" id="Слой_1" xmlns="http://www.w3.org/2000/svg" xmlns:xlink="http://www.w3.org/1999/xlink" x="0px" y="0px"
	 viewBox="0 0 4272 2880" style="enable-background:new 0 0 4272 2880;" xml:space="preserve">
<style type="text/css">
	.st0{fill:#37332E;}
</style>
<path class="st0" d="M1255.4,151.5c-4.6,0.4-35.6,2.9-45,3.9c-43.2,4.4-82.2,11.9-123.2,23.7c-77.3,22.3-154.7,59.4-215.1,103
	c-11.4,8.3-85.7,67.8-84.9,69.1c0.4,0.6-1.7,3.3-4.6,6.3c-0.3,0.3-0.6,0.7-0.9,1.1c-3.2,4.6-15.2,20.3-17.8,23.5
	c-6.5,7.9-6.9,8.9-10.1,13.3c-27,36.5-43.1,66.1-54.7,101.2c-7.4,22.2-13.5,52.6-13.5,67.1c0,2-0.1,29.1,0.3,36.4
	c1.7,29.6,11.3,68.1,24.7,99c3.2,7.4,11.1,23.9,16.1,33.3c6.4,12.3,9.9,18.4,20,33.3c0.2,0.3,0.4,0.5,0.6,0.8c4.3,5,6,8,9.8,12.3
	c4.7,5.3,8.3,9.1,13.9,15.4c0.2,0.3,0.5,0.6,0.9,1c0.1,0.1,7.6,6.9,7.8,7c0,0,18.1,14.1,20,15.4c1.7,1.1,23.1,13.9,30.8,19.1
	c0.3,0.2,0.6,0.4,0.9,0.5c44.7,22.8,68,31.9,117.2,36c20.5,1.7,57,1.8,66,0.2c12-2.2,30.1-6.9,42.3-11.1
	c40.1-13.7,67.3-29.6,100.2-58.5c3-2.7,28.8-29.1,32.9-33.8c20.6-24.2,36.1-49.5,47-77c10.6-26.9,19.6-67.4,19.6-88.4
	c0-5.7,0.2-13.7-0.5-24.7c-0.3-5.5-0.5-10.6-0.6-12.5c0-0.5-2-11.5-2.9-16c-4.7-24.2-11.8-46.6-26-82.8
	c-16.2-41-23.9-66.4-26.1-85.3c-3.3-29.2-3-51.1,0-83.1c1.1-11.2,5-30.8,8.6-43.5c10.2-35.6,30.6-72.8,47.6-87
	c7.5-6.3,7.9-12.3,9.7-14.5C1270.3,150.1,1263.1,150.8,1255.4,151.5z"/>
<path class="st0" d="M1892,1076v920h216h216v-920V156h-216h-216V1076z"/>
<path class="st0" d="M2926.5,262c0.3,0.5,1.5,1,2.6,1c1.1,0,1.7-0.5,1.4-1c-0.3-0.6-1.5-1-2.6-1C2926.8,261,2926.2,261.4,2926.5,262
	z"/>
<path class="st0" d="M2488.7,1821.8c-12.1,2.4-13.8,3.5-6.9,4.3c18.5,2.2,338.4,3.4,429.9,1.6c66.7-1.3,83.8-2.7,124-10.1
	c108.3-20,211-62.8,301.5-125.4c15.5-10.8,87.5-67.3,89.9-69.5c2.5-2.3,34.6-37.2,34.6-37.7c0-1,29.1-33.6,30.9-36.2
	c1.3-1.7,16.5-20.6,22-27.9c19.3-25.5,46.1-67.4,60.7-94.7c3.4-6.3,11.9-22.4,17.4-33.9c26.2-54.9,46.5-113.5,59.5-171.6
	c4.6-20.6,7.9-41.1,10.6-66.2c1.4-12.9,6-82.2,6-84.6c-0.1-2.8-0.1-12.5,0-14.9c0-2.1,0-10.7,0-13.1c-0.1-2.8-0.7-16.7-1.6-36.7
	c-0.7-14.1-2.2-27.1-6.1-52c-20.6-131.3-70.2-249.7-147.3-351.5c-5.2-6.9-10.9-14.3-12.8-16.4c-3.2-3.8-18.2-26.1-21.2-29.5
	c-0.3-0.3-1.7-2.6-13.5-14.7c-4.3-4.5-116.5-100.1-118.4-101.4c-13.5-9.8-52.2-34.9-64.7-42c-64.4-36.9-151.1-71.2-215.3-85.1
	c-47.8-10.3-67.7-13.1-111.2-15.5c-7.4-0.4-20.9-0.4-25.6-0.7c-2.7-0.2-53.7-1.1-113.4-1.8c-59.7-0.7-108.6-1.6-108.8-2.1
	c-0.3-0.7-60.6-0.8-102.7-0.1c-9.3,0.2-41.5,0.7-71.3,1.1c-49.8,0.7-61.1,0.1-61.1,3.8c-0.1,2.8-0.1,3.5,1.2,5l2.7,1.1
	c0,0,10.2,0.9,18.7,1.4c6.8,0.3,24,2.8,25.5,2.8s10.8,1.2,20.5,2.6c77.6,11.2,155.5,38.2,226.9,78.6c29.6,16.8,76.1,49.6,79.9,54
	c41,31.6,62.6,57.5,65.1,59.6c25.6,25.6,57.1,59.2,62.4,64.3c6.1,6,21.3,29.4,25.5,33.3c8.7,7.9,38,52.9,56.3,86.2
	c35.4,64.8,60.8,131.1,79.2,207.1c7.5,30.8,15.8,97.8,15.2,101.4c-0.1,0.8,0.3,5.1,0.9,9.5c1.3,9,0.3,104.7,0.3,113.3
	c-0.1,17.4-2.8,42.6-7.5,70.2c-18.5,108.4-58.8,211.2-118.5,302.2c-5.7,8.7-32.3,45.7-33.9,48.1c-0.9,1.5-13.6,17.2-25.2,29.1
	c-6.8,7-62.9,62.8-64.9,64.7c-3.9,3.7-18.2,18.3-25.3,25.2c-9,8.8-13.7,11.3-14.6,12.1c-4,3.4-3,2.8-7.3,5.4
	c-15.7,16.6-76,55.5-120.2,77.6c-69,34.5-133,54-209.9,64.1"/>
<path class="st0" d="M2519.5,306.3"/>
<path class="st0" d="M592.7,1829.2c22.7,21.3,34,30.2,41.2,36.3c17.4,14.4,48.5,36.2,67.3,46.9c4.1,2.3,18.2,9.7,22.3,12.1
	c8.8,5,37.8,18.2,53.9,24.6c52.4,20.8,123.3,38.9,172.6,44.2c0.1,0,201.6,6.3,323.9,7l108,0.5l-24.5-12c-13.5-6.7-64.2-37.9-70.3-43
	c-3.9-3.3-27.9-20.1-36.7-28.6c-8.6-8.4-24.3-24.6-27.5-27.7c-3.2-3.2-28-27.6-30.7-30.5c-5.1-5.4-6.1-7-12.5-16.7
	c-15.7-23.5-51.2-78-70.3-128.9c-16.4-43.9-26.6-109.6-26.3-147.9c0.2-25.6,0.1-36.2,0.1-46c-0.2-42,12.4-105.9,30-152.2
	c8-21,16-39.1,20.1-46.5c6.4-11.5,3.8-7.6,8.4-15.4c14.1-23.9,14.1-23.9,30.9-47.6c9.6-13.6,12.7-15.9,17.4-21
	c6.9-7.6,15.8-18.4,19.4-22.5c3.8-4.3,27.6-29,28-29.3c2-1.8,17.5-14.9,24.7-20.6c9.9-7.8,61.2-44.1,103.1-65l24.9-12.4l-58.3-0.7
	c-52-0.7-170.9,3.5-198.1,3.7c-76.2,0.5-92.8,0.9-109.3,2.3c-20.4,1.8-40.4,3.8-42.2,4.1c-1.8,0.2-13,1.8-24.8,3.4
	c-92.8,12.9-178.9,41.6-253,84.2c-28.2,16.3-45,28.3-64.3,46c-8.5,7.8-35.2,33.6-39.3,38.1c-7.7,8.5-28.6,32.4-31.6,36.3
	c-25.9,34-47.8,79.7-62.4,130.4c-5.2,18-11.8,49.7-13.6,64.6c-0.7,6.8-2.9,32.9-2.9,47.3c0,16.9,1.2,37.7,1.6,40.8
	c9.2,83.9,23.5,132.9,66.9,201.6"/>
<path class="st0" d="M514.3,1536c0,4.7,0.2,6.6,0.4,4.2c0.2-2.3,0.2-6.1,0-8.5C514.5,1529.4,514.3,1531.3,514.3,1536z"/>
<path class="st0" d="M3475.8,554"/>
<path class="st0" d="M1735.9,2213.4c-0.9,0.4-3.5,2.2-5.8,4.1l-4.2,3.4v13.9c0,10.4-0.3,13.8-1.2,13.8c-2.7,0-27.8,3.2-36.8,4.6
	c-32.2,5.2-62.8,16.2-85.3,30.7c-5.2,3.4-16.2,7.7-22.8,14.4c-13.9,14.3-18.2,25.3-19.8,27.6c-4.7,6.9-11,20.3-14.6,31
	c-14.7,43.8-6.8,96.8,19.6,132.4c2.2,2.9,25.5,28.5,29.6,32.3c5,4.6,17.3,8.4,23.2,11.4c19.6,9.9,42.6,17,70.6,21.6
	c7.2,1.2,14.5,2.8,16.3,3.6c1.9,0.9,5.7,1.5,9,1.4c3.1-0.1,7.2-0.1,9-0.1l3.2,0.1v13.6v13.7l4.2,4.3l4.3,4.4h7.6
	c6.8,0,7.8-0.2,10-2.6c2.3-2.4,2.4-3.3,2.7-17.4c0.4-17.5-0.6-16.4,14.1-16.2c6.7,0.1,9.9-0.2,11-1.2c0.9-0.7,7.7-2.3,15.1-3.5
	c27.8-4.5,89.1-28.2,93.2-32c2.9-2.6,31-29.8,32.7-36.4c19.2-37.1,30.8-79.1,20.1-119.3c-3.6-13.6-8.7-25.9-15.1-36.6
	c-2.8-4.7-39.6-42.3-45.3-46c-23.2-14.9-50.2-24.2-89.6-30.8c-10.2-1.7-19.3-3.6-20.3-4.1c-1.1-0.6-5-1.3-8.7-1.6l-6.9-0.6
	l-0.3-14.3c-0.3-14.2-0.3-14.3-3.2-17.3c-2.6-2.8-3.6-3.1-8.5-3C1739.9,2212.7,1736.7,2213,1735.9,2213.4z M1778.8,2278.2
	c6.8,0.8,14,2.2,16,3.1c2,0.8,7.7,1.9,12.6,2.3c14.9,1.4,38.8,10.7,55.9,21.7c8.9,5.7,27.3,23.8,33.2,32.6
	c10,14.9,16.4,33.2,17,49.2c1.3,35.1-1,55.5-7.9,69.1c-5.8,11.5-22.7,31.5-28.6,34c-2,0.8-5.6,3.5-8.1,5.9
	c-2.8,2.7-9.4,6.9-17.5,11.1c-7.1,3.7-13.9,7.5-15,8.5c-3.7,3.3-35.8,11.3-57.2,14.3c-6.5,0.9-10.8,1-14.6,0.3l-5.4-1l-0.6-80.1
	c-0.4-44-0.7-101.1-0.7-126.8v-46.8l4.3,0.5C1764.5,2276.4,1772,2277.3,1778.8,2278.2z M1725.4,2281.8c-0.4,2.9-0.9,57.9-1.1,122.3
	c-0.2,64.3-0.3,118.8-0.4,121.1c0,4-0.1,4.1-4.7,5.1c-10.5,2.4-66.1-8.7-72.8-14.6c-3.7-3.3-12-8-25-14.2
	c-11.6-5.6-13.7-7-19.7-13.3c-1.9-2-4.9-6-7.7-9.8c-2.6-3.5-5.1-6.9-6.8-8.6c-10.5-10.3-14.8-23-16.6-49.2
	c-1.1-15.4-1.1-17.6-0.3-36c0.5-13.1,2.8-21.1,10.4-36.5c5.4-11,8.7-15.1,22.6-28.8c12.7-12.5,13.3-12.9,26.9-19.7
	c26.7-13.3,61.2-22.2,89.1-22.8l6.9-0.2L1725.4,2281.8z"/>
<path class="st0" d="M3132.4,2226.2c-29,6.1-56.1,18.1-78.9,35c-4.7,3.5-9,6.4-9.4,6.4s-3.7,3.1-7.4,6.8c-3.6,3.7-7.8,7.8-9.3,9.2
	c-10.7,10.1-13.5,13.2-14,15.7c-0.6,3-0.9,3.6-9,18.1c-9.8,17.3-17.5,40.4-20.6,61.3c-2,13.5-1.5,42.2,1,56.1
	c4.1,23.2,14,48,27,67.6c3.2,4.8,6.1,9.9,6.4,11.3c0.4,1.5,4.2,6.4,8.4,11c4.3,4.6,10,11.1,12.8,14.3c7,8.3,13,12.6,17.3,12.6
	c2.5,0,5.8,1.5,11.5,5.1c17,10.9,38.9,19.6,60.3,24c15.4,3.1,52.2,3.9,69.1,1.4c26.2-3.8,49.5-12.3,70.4-25.6
	c4.8-3.1,8.7-4.9,10.6-4.9c4,0,8.6-3.5,21.8-16.6c13.1-12.9,18.5-19.8,18.5-23.2c0-1.4,2.6-6.6,5.9-11.6
	c20.3-31.4,29.3-64.7,27.8-103.1c-1.3-31.8-9.7-60.1-26.3-87.6c-1.9-3.1-3.4-6.8-3.4-8.1c0-4.1-9.8-15.8-13.2-15.8
	c-0.6,0-2.8-2-5-4.4c-5.9-6.8-21.3-19.7-30.8-25.9c-19.7-12.8-45.7-23.2-70.5-28.4c-10.2-2.1-15.4-2.5-35.5-2.9
	C3145.7,2223.6,3143.8,2223.7,3132.4,2226.2z M3196.9,2255.5c17.7,1.5,32.8,6.9,53.9,19.4c8.6,5.1,12.5,8.3,22.5,18.5
	c6.7,6.8,13.3,12.9,14.7,13.7c5.2,2.8,19.4,26.3,24.8,41.2c4.4,11.8,5.1,20.2,5.1,56.7c0.1,43.8-0.8,48.8-12.8,72
	c-4.7,9.1-14.6,23.8-16.6,24.5c-0.6,0.2-5.5,4.7-10.9,10c-5.4,5.3-10.4,9.8-11,10c-0.7,0.2-3.9,2.9-7.2,6
	c-10.6,10-33.6,20.1-57.6,25.2c-14.4,3.1-49.3,3.4-64.4,0.5c-14-2.6-33.3-8.9-44.9-14.7c-10-5-23.6-13.6-23.6-14.9
	c0-0.9-10.7-11.5-18.6-18.5c-14.1-12.4-28.3-41.7-33.9-69.9c-2.1-10.9-2.3-14.1-2-33.1c0.3-17,0.7-22.9,2.5-30.9
	c4.1-18.8,12.9-40.5,22-54.5c5.3-8.1,32.4-34.9,41.3-40.8c15.7-10.3,34.5-17.2,55.7-20.3C3148.4,2253.7,3175.1,2253.7,3196.9,2255.5
	z"/>
<path class="st0" d="M597.2,2225.6c-27.6,0.3-50.5,0.9-51,1.3c-1.7,1.7-2.5,178.7-1.4,297c0.5,47.8,0.8,57.9,2,58.6
	c2.1,1.4,15.4,2.3,20.6,1.6c2.5-0.4,5.3-1.4,6-2.2c1.3-1.2,1.5-23.3,1.5-163.9v-162.4H692h117.2l-0.2,91.2
	c-0.2,106.5,1,230.5,2.3,233.1c0.4,0.9,2,2,3.5,2.2c1.4,0.3,4,1,5.6,1.5c5.9,1.8,14.9,2.2,16.8,0.8c1.7-1.2,1.7-10,1.7-178
	c0-97.2-0.3-177.4-0.6-178.2c-0.3-0.8-1.3-1.8-2.3-2.1C833.7,2225.4,657.7,2225,597.2,2225.6z"/>
<path class="st0" d="M969.3,2227c-3.7,1.7-5.4,3.2-6.5,5.7c-1.2,2.9-1.4,27.8-1.2,170.4c0.1,91.8,0.5,168.9,0.8,171.2
	c0.9,6.2,2.4,7.3,10.6,7.3c3.9,0,8-0.5,9.2-1.1c1.2-0.7,5.4-4.3,9.3-8c4-3.8,7.7-6.9,8.3-6.9c0.6,0,221.4-280.5,221.4-280.5l0.8,7.5
	c0.4,4.1,1,43.3,1.4,87c1.8,197.8,1.9,202,3.4,202.9c2.1,1.4,15.4,2.3,20.6,1.6c2.5-0.4,5.3-1.4,6.1-2.2
	c2.2-2.3,1.5-335.9-0.8-347.2c-1.7-8.7-3.2-10.1-10.1-10.1c-4.9,0-5.1,0.1-13.2,8.5c-5.7,5.8-109.5,133.7-110.4,134
	c-2.5,0.7-115.7,147.1-117.9,150.1l-4.2,5.7v-4.9c0.2-29.8-3.5-283.8-4.2-286.6c-0.7-3-1.5-3.9-3.6-4.3c-1.5-0.3-4.3-1-6.3-1.5
	C977.4,2224.1,974.9,2224.4,969.3,2227z"/>
<path class="st0" d="M2142.8,2226.9c-6.1,4.1-10.9,11.9-26.4,43.2c-12.6,25.6-53.1,112.2-56.4,120.7c-0.5,1.2-13.7,30.2-29.4,64.3
	c-53.7,117-53.7,116.9-53.7,120.6c0,4.2,0.7,5.2,4.7,7.3c9.8,5,19-0.4,27.9-16.3c5.1-9,15.1-30.3,31.4-66.9l7.3-16.2h51.8
	c37.3,0,52,0.3,52.5,1.1s14.2,1.1,50.2,0.8l49.5-0.4l12.2,27c23.7,52.7,29.3,63,37.2,69c3.4,2.6,5.6,3.5,8.5,3.5
	c4.2,0,10.8-2.3,12-4.3c2.1-3.3,0.1-9.1-15.1-42.3c-114.7-252.1-136.6-298-147.5-309.7c-3.1-3.3-4-3.7-8.4-3.7
	C2147.7,2224.6,2145.2,2225.3,2142.8,2226.9z M2156.6,2279.3c18.4,35.7,55.3,116.7,71.8,157.6c7.6,18.9,7.6,18.6-1,18.8
	c-21.2,0.5-158.5,0-160.3-0.5c-1.2-0.4-2.2-1.2-2.2-1.8c0-2.8,22.7-55.7,46.2-107.8c6.6-14.6,16.3-36,21.5-47.5
	c10.2-22.6,15.2-32.5,16.3-32.5C2149.2,2265.6,2152.7,2271.8,2156.6,2279.3z"/>
<path class="st0" d="M2402.6,2225.6c-2,0.4-4.1,1-4.5,1.4c-0.4,0.4-1,15.2-1.4,32.9c-0.4,17.7-1.1,49.3-1.6,70.2
	c-1,36-0.2,134.2,1.6,218.8c0.6,26.7,1,32.9,2.1,33.7c1.9,1.1,21.3,2.4,24.5,1.6c1.4-0.3,3-1.4,3.5-2.5c1-1.8,1.2-66,0.4-134.4
	l-0.4-31.7l40.8,0.1h40.8l4.3,5.4c2.3,3,4.2,6.5,4.2,7.8c0,3.2,2.9,6.7,10.1,12.3c4.7,3.6,5.9,5.1,5.9,7.3c0,3.6,2.7,7,10.1,12.7
	c4.7,3.6,5.9,5.1,5.9,7.3c0,3.6,2.7,7,10.1,12.7c4.7,3.6,5.9,5.1,5.9,7.3c0,3.6,2.7,7,10.1,12.7c4.2,3.2,5.9,5.2,5.9,6.8
	c0,2.9,4.2,8.8,10.7,14.8c2.8,2.5,5.3,5.9,5.7,7.3c0.4,1.5,4,6.1,8.1,10.3c4,4.1,7.6,8.6,7.9,9.8c0.9,3.4,13.4,16.3,16.5,17.1
	c1.4,0.3,3.9,2.2,5.5,4.1c1.7,1.9,5.6,5.4,8.9,7.8c5.2,3.9,6.5,4.4,11.2,4.4c6,0,8.5-1.7,8.5-5.6c0-1.4,0.7-3.2,1.5-4
	c2.3-2.4,1.8-6.7-1.4-11c-3.3-4.7-8.7-9.4-10.7-9.4c-0.7,0-1.6-1.2-2-2.8c-0.3-1.5-0.9-3.7-1.4-4.9c-1.3-3.2-7.9-10.2-11.1-11.9
	c-2-1-3.2-2.7-3.9-5.5c-1-3.7-6.3-9.8-14.1-16.6c-0.9-0.8-1.9-2.7-2.3-4.3c-0.5-2.6-6.7-9.6-13.7-15.7c-0.9-0.8-1.9-2.7-2.3-4.3
	c-0.5-2.6-6.7-9.6-13.7-15.7c-0.9-0.8-2-2.8-2.3-4.5c-0.4-2.1-3-5.4-8-10.2c-4.2-4.1-7.6-8.3-8-9.9c-0.4-1.5-3.1-5.3-6.1-8.4
	c-2.9-3-5.6-6.6-5.9-7.9c-0.3-1.2-3.7-5.6-7.5-9.7c-3.8-4.1-7.5-8.5-8.1-9.8c-0.7-1.3-3-4.8-5.2-7.6c-4-5.3-4-5.3-2.3-8
	c1-1.6,4.9-5.7,8.6-9.3c4.7-4.4,6.9-7.3,6.9-8.8s2-4.3,6-8c4.3-4.1,6-6.5,6-8.3c0-1.6,1.2-3.6,3-5.3c11.2-10.3,13-12.4,13-15.1
	c0-1.8,1-3.6,3.1-5.4c8.2-6.8,12.9-11.9,12.9-14c0-1.4,2.2-4.3,6-7.9c4.3-4.1,6-6.5,6-8.3c0-1.6,1.2-3.6,3-5.3
	c11.2-10.3,13-12.4,13-15.1c0-1.8,1-3.6,3.1-5.4c8.2-6.8,12.9-11.9,12.9-14c0-1.4,2.2-4.3,6-7.9c4.5-4.3,6-6.4,6-8.5
	c0-1.5,1.1-4.4,2.3-6.5c2.4-3.8,6.9-13.4,6.5-13.7c-0.2-0.1-1.6-1.1-3.2-2.3c-1.8-1.4-4.2-2.2-6.5-2.1c-4.1,0-14.5,3.2-13.6,4.1
	c1.1,1-11.5,12.2-15.2,13.4c-4,1.4-3.8,1.2-8.7,7.7c-2,2.7-3.6,5.7-3.6,6.7s-0.8,2.1-1.8,2.5c-2.3,0.7-10.2,11.1-10.2,13.4
	c-0.1,2.2-2,4.5-5.3,6.2c-2.8,1.5-10.7,11.2-10.7,13.3c0,0.7-2.5,3.8-5.5,6.9c-3.3,3.3-5.8,7-6.2,8.7c-0.5,2.7-5.3,8-7.2,8
	c-1.3,0-9.1,11.1-9.1,13c0,0.9-0.8,2.3-1.7,3.2c-6.9,5.9-13.3,13.1-13.9,15.3c-0.4,1.5-2.6,4.4-4.9,6.6c-3.8,3.5-4.9,5.1-8.5,13.1
	c-0.7,1.5-2.5,3.2-4,3.8c-3.1,1.3-9.8,9.7-10.9,13.7l-0.7,2.8l-35-0.4c-30.8-0.3-35.4-0.2-38.2,1.3c-1.7,0.9-4.2,1.6-5.7,1.6h-2.5
	v-80.3c0-45.6-0.4-80.8-0.9-81.6C2424.4,2225.2,2410.7,2224,2402.6,2225.6z"/>
<path class="st0" d="M2721.4,2225.6c-49.4,0.5-49,0.5-51.4,5.7c-1.4,3-1.4,13.3-0.1,16.8c0.5,1.4,2.2,3.7,3.6,5l2.7,2.5h60.3h60.4
	l0.1,81.7c0.2,119,1.3,240.5,2.3,242.6c0.4,0.9,2,2,3.5,2.2c1.4,0.3,4,1,5.6,1.5c5.9,1.8,14.9,2.2,16.8,0.8
	c1.7-1.2,1.7-9.4,1.7-165.1v-163.7h62.4c54,0,62.7-0.2,63.9-1.5c3.3-3.2,3.3-23.7,0.1-27c-1.3-1.3-7.9-1.5-44.2-1.7
	C2842,2225,2771.4,2225.1,2721.4,2225.6z"/>
<path class="st0" d="M3470.2,2225.6c-12.7,0.3-23.5,0.9-24,1.3c-0.4,0.5-1.1,15.3-1.5,33c-0.4,17.7-1.2,45.7-1.8,62.2
	c-1.3,35.4-0.4,190.8,1.1,193.6c0.5,1,0.9,15.3,0.9,33.1c0,17.2,0.4,31.9,0.9,32.7c1,1.6,10.4,3,20.4,3c4.6,0.1,6.1-0.3,7.9-2.1
	l2.1-2.1l-0.7-56.3l-0.6-56.2l53.7-0.5c55.8-0.5,64.8-1,86.8-5.2c16.2-3.1,27.4-6.8,40.2-13.4c5.5-2.8,10.9-5.1,12-5.1
	c3.8,0,15.3-10.1,15.3-13.5c0-0.7,2-2.5,4.3-3.8c6.2-3.7,11.7-10,11.7-13.6c0-1.6,1.8-6.4,4-10.8c5-9.7,9.4-23.2,11-34.1
	c0.7-4.5,1.6-8.2,2.1-8.2c1.4,0,2.9-7.1,2.9-13.7c0-6.2-1.3-11.2-3.2-12.4c-0.5-0.3-1.6-4.2-2.4-8.7c-0.7-4.4-2.6-11.8-4.1-16.4
	c-1.7-5.1-2.6-9.9-2.4-12.5c0.3-4.6-2.5-10.5-5.9-12.3c-0.9-0.5-2-2.3-2.4-4c-0.4-2.2-4.1-6.7-12.3-15.2
	c-12.2-12.4-15.4-14.8-19.8-14.8c-1.4,0-4.2-1.1-6.3-2.3c-9.4-6-27.3-12.5-42.7-15.7c-3.9-0.8-6.8-2.1-8.2-3.6
	c-1.9-2-3.2-2.4-8.3-2.4c-3.4,0-7,0.5-8.1,1.1c-1.4,0.7-6.6,0.7-17.7-0.2C3558,2225.3,3507.1,2224.8,3470.2,2225.6z M3601.9,2257.6
	c15.1,1.5,23.1,3.2,32.4,6.9c7.5,3,19.7,10.4,20.5,12.5c0.2,0.5,4.1,4.9,8.5,9.6c8.4,8.8,11.6,14.2,15.4,26
	c3.4,10.6,4.4,18.5,4.4,37c0,31.9-3.3,40.7-22.1,59.8c-10,10-13.3,12.7-19.3,15.6c-9.8,4.7-25.7,9-43,11.7
	c-13.5,2.1-16.9,2.2-60.8,2c-40.1-0.2-47.1,0-51,1.3c-2.5,0.9-6.2,1.6-8.2,1.6h-3.8v-93.1v-93.2l57.8,0.6
	C3564.4,2256.2,3595.6,2257,3601.9,2257.6z"/>
<path class="st0" d="M3801.1,2225.4c-3.9,0.5-6.6,1.3-7.2,2.2c-0.6,0.9-1,40.7-1,102.8c0,55.7-0.3,102.1-0.7,103
	c-0.5,0.9-0.6,34.7-0.3,75c0.6,84.8-0.6,76.8,11.2,75.9c8.6-0.7,10.7-1.9,20.3-11.7c4.4-4.4,9.8-9.2,12.1-10.5
	c6-3.5,11.4-9.9,11.4-13.5c0-2.4,1-3.7,5.3-6.9c6.5-4.8,10.7-9.6,10.7-12.2c0-1.2,2.6-4.5,6-7.7c4.3-4.1,6-6.5,6-8.3
	c0-1.6,1.2-3.7,3.2-5.5c10.9-10.1,12.8-12.2,12.8-14.5c0-3.1,11.8-18.2,21-26.9c5.2-4.8,7-7.2,7-9.1c0-1.6,1.1-3.6,3-5.3
	c10.3-9.5,13-12.5,13-14.5c0-1.4,2.2-4.3,6-7.9c4.4-4.2,6-6.5,6-8.4c0-1.7,1.1-3.7,3.1-5.5c9.9-8.9,12.9-12.2,12.9-14.2
	c0-1.4,2.2-4.3,6-7.9c4.3-4.1,6-6.5,6-8.3c0-1.6,1.2-3.6,3-5.3c10.6-9.8,13-12.5,13-14.7c0-1.6,1.7-3.9,5.5-7.2
	c3.8-3.3,5.8-5.9,6.5-8.6c0.7-2.8,2.8-5.4,8-10c4.8-4.3,7.2-7.3,7.9-9.7c0.6-2.2,2.7-5.1,5.6-7.6c2.5-2.2,5.5-6,6.6-8.4
	c1.1-2.3,4.9-7.1,8.5-10.6c3.5-3.4,6.7-7.2,7.1-8.3c0.3-1.1,2.2-4,4.2-6.4l3.6-4.4l0.7,10.9c0.3,6,0.4,28,0.1,48.9
	c-0.3,20.9,0,67.7,0.6,103.9c0.8,45.7,0.9,66.2,0.1,67c-1.3,1.3-1.3,7.3,0,8.1c0.6,0.4,1,11.1,1,28.8c0,15.5,0.4,28.8,0.9,29.6
	c2.1,3.3,24.4,3.7,27.7,0.4c2.1-2.2,2.1-351.9,0-354.9c-1.2-1.6-2.5-1.9-8.7-1.7c-6.7,0.2-7.5,0.4-10.2,3.3c-1.5,1.6-3.2,3-3.6,3
	c-0.4,0-3.4,3.1-6.7,7c-4.5,5.3-6.5,7-8.5,7c-3.1,0-14.9,11.7-14.9,14.8c0,1.2-0.8,2.3-1.8,2.7c-2.5,0.7-10.2,11.2-10.2,13.9
	c0,2.9-1,4-4.6,5.5c-3.5,1.4-11.4,11.3-11.4,14.2c0,1-0.8,2-1.8,2.4c-2.3,0.7-10.2,11.1-10.2,13.4c-0.1,2.2-2,4.5-5.3,6.2
	c-2.8,1.5-10.7,11.2-10.7,13.3c0,0.7-2.5,3.8-5.5,6.9c-3.3,3.3-5.8,7-6.2,8.7c-0.5,2.7-5.3,8-7.2,8c-1.1,0-9.1,11-9.1,12.4
	c0,0.7-2.5,3.7-5.5,6.8c-3,3.1-5.7,7-6.1,8.5c-0.4,1.6-3.8,5.8-8,9.8c-4,3.9-7.5,8.2-7.9,9.6c-0.4,1.5-3.1,5.2-6.1,8.3
	c-3.2,3.3-5.7,6.9-6.1,8.6c-0.5,2.7-5.3,8-7.2,8c-1.3,0-9.1,11.2-9.1,13.1c0,1-0.8,2-1.8,2.3c-2.3,0.8-8.5,8.9-10.5,13.8
	c-0.9,2.1-3,4.6-4.7,5.7c-3.2,1.9-11,11.4-11,13.3c0,0.6-1.8,2.9-4.1,5.1c-2.2,2.2-5.2,6.1-6.7,8.6c-1.4,2.5-5.6,7.9-9.4,11.9
	c-3.7,3.9-6.8,7.6-6.8,8.1s-2.4,3.9-5.3,7.5l-5.4,6.5l-0.7-14.7c-0.3-8-0.4-51.1-0.1-95.7c0.4-52.4,0.2-89.5-0.5-105
	c-0.6-13.2-1.4-36.2-1.9-51c-0.4-14.9-1.1-27.8-1.5-28.7c-0.4-0.9-1.5-1.9-2.3-2.3C3817.5,2225.1,3807.7,2224.8,3801.1,2225.4z"/>
<path class="st0" d="M294.2,2227.6c-6.5,3.9-12.2,13.1-26.8,42.5c-13.9,28.2-36.2,75.9-55,117.5c-5.1,11.3-15.2,33.3-22.5,49
	c-7.3,15.7-23.8,51.9-36.7,80.5c-25.4,56.2-26.6,59.5-22.3,64c4.1,4.4,15.5,3.1,21-2.4c6.5-6.3,15.2-23.5,39.2-76.9l7.3-16.3
	l69.5,0.3c38.2,0.2,84.1,0.2,102,0l32.5-0.3l14.4,31.8c24.2,53.4,28.7,61.5,36,65.3c6.8,3.4,17.7,2,19.5-2.5c1.1-3.1,0.6-9-1.3-13
	c-1-2.2-8-17.5-15.6-34c-19.1-41.5-22.7-49.4-43.8-95.5c-10.2-22.3-22.2-48.4-26.7-58c-4.5-9.6-13.2-28.3-19.2-41.5
	c-17-37-37.2-78.9-42.9-88.9c-6.2-10.9-13-20.5-14.5-20.6c-0.6,0-1.7-0.7-2.4-1.5C304.2,2225,298,2225.2,294.2,2227.6z
	 M310.7,2285.3c21.5,44.3,46.6,99.1,63.9,139.8c12.4,28.9,12.5,29.3,11,30.2c-0.6,0.4-10,0.7-20.7,0.6c-10.7-0.1-19.8,0.1-20.3,0.4
	c-1.4,0.8-70.8,0.9-71.3,0.1c-0.3-0.4-13.3-0.7-29-0.6c-17,0-28.9-0.3-29.5-0.9c-0.6-0.6,1.8-7.1,6.5-17.9
	c16.6-38.1,39.5-89.1,56.4-125.9c18.8-40.9,21.4-46.5,22.2-46.5C300.3,2264.6,305.1,2273.9,310.7,2285.3z"/>
<path class="st0" d="M1342.5,2431.2c-1.3,1.2-1.6,4.1-1.6,15.4s0.3,14.2,1.6,15.4c1.4,1.4,9,1.6,69.4,1.6c60.4,0,68-0.2,69.4-1.6
	c1.3-1.2,1.6-4.1,1.6-15.4s-0.3-14.2-1.6-15.4c-1.4-1.4-9-1.6-69.4-1.6C1351.5,2429.6,1343.9,2429.8,1342.5,2431.2z"/>
<path class="st0" d="M1008.9,2509.7"/>
<path class="st0" d="M1177.4,2339.9"/>
<path class="st0" d="M1176.1,2341.8"/>
<path class="st0" d="M1106.2,2433.7"/>
</svg>
